# xmcd
#
# Track frame offsets:
#	150
#	17415
#	33942
#	50712
#	69227
#	84315
#	105587
#	120832
#	139810
#	152305
#	170577
#	190902
#
# Disc length: 2822 seconds
#
# Revision: 1
# Processed by: cddbd v1.5.2PL0 Copyright (c) Steve Scherf et al.
# Submitted via: audiograbber 1.83.01
#
DISCID=890b040c
DTITLE=Katzi Carver - Drawn To Danger Katzi Carver
DYEAR=2000
DGENRE=Country
TTITLE0=Lone Star Lover
TTITLE1=Drawn To Danger
TTITLE2=In Honor Of The Tears
TTITLE3=She´s Gotta Go
TTITLE4=This Little Jewel
TTITLE5=The Clostest Stranger
TTITLE6=Fish
TTITLE7=Only You
TTITLE8=Don´t Walk Away
TTITLE9=Red Rambler Ride
TTITLE10=Seek To Learn
TTITLE11=Me And Jackie Fern
EXTD=
EXTT0=
EXTT1=
EXTT2=
EXTT3=
EXTT4=
EXTT5=
EXTT6=
EXTT7=
EXTT8=
EXTT9=
EXTT10=
EXTT11=
PLAYORDER=
